<svg id="home" xmlns="http://www.w3.org/2000/svg" width="48.048" height="52" viewBox="0 0 48.048 52">
  <path id="home_FILL1_wght700_GRAD0_opsz48" d="M140.992,256A6.01,6.01,0,0,1,135,250.008V225.976a5.913,5.913,0,0,1,.63-2.674,5.734,5.734,0,0,1,1.793-2.107l15.936-11.984a7.487,7.487,0,0,1,1.78-.892A5.753,5.753,0,0,1,157.01,208a5.632,5.632,0,0,1,1.857.319,7.42,7.42,0,0,1,1.758.892L176.562,221.2a6.321,6.321,0,0,1,1.822,2.123,5.6,5.6,0,0,1,.664,2.658v24.032a5.74,5.74,0,0,1-1.779,4.232,5.863,5.863,0,0,1-4.277,1.76H162.474V236.175H151.51V256Z" transform="translate(-133 -206)" fill="#e97525"/>
</svg>
